<svg width="38" height="38" viewBox="0 0 38 38" fill="none" xmlns="http://www.w3.org/2000/svg">
<path fill-rule="evenodd" clip-rule="evenodd" d="M12.1304 3.16667H25.8537C31.2422 3.16667 34.8333 7.01238 34.8333 12.5306V25.4678C34.8333 30.9863 31.2419 34.8333 25.8537 34.8333H12.1304C6.74462 34.8333 3.16666 30.9894 3.16666 25.4678V12.5306C3.16666 7.0151 6.75507 3.16667 12.1304 3.16667ZM25.8537 5.54775H12.1304C8.1077 5.54775 5.54642 8.29463 5.54642 12.5306V25.4678C5.54642 29.7107 8.09825 32.4523 12.1304 32.4523H25.8537C29.89 32.4523 32.4536 29.7062 32.4536 25.4678V12.5306C32.4536 8.29262 29.8904 5.54775 25.8537 5.54775ZM21.4238 19.7265C22.8288 18.0155 25.3585 17.8424 26.9814 19.2905L27.1877 19.4886L30.4813 22.8888C30.9387 23.361 30.9269 24.1147 30.455 24.5723C30.026 24.9883 29.3644 25.0164 28.9041 24.6633L28.7725 24.5459L25.479 21.1459C24.9052 20.5538 23.9725 20.5483 23.3902 21.101L23.2623 21.2384L19.7266 25.5411C18.4759 27.0654 16.2256 27.2287 14.7697 25.9513L14.5763 25.7682L13.1652 24.3276C12.7945 23.9427 12.2034 23.9063 11.7918 24.2169L11.6618 24.3332L9.23602 26.8937C8.78392 27.3709 8.0308 27.391 7.55387 26.9387C7.1203 26.5274 7.06424 25.8673 7.3973 25.3922L7.5089 25.2556L9.93416 22.6957C11.2109 21.3463 13.3135 21.2745 14.6736 22.4781L14.8718 22.6682L16.2758 24.1015C16.6862 24.5204 17.344 24.531 17.7681 24.1542L17.8878 24.0296L21.4238 19.7265ZM13.5733 10.5153C11.3805 10.5153 9.60231 12.2959 9.60231 14.4901C9.60231 16.6843 11.3805 18.4649 13.5733 18.4649C15.7662 18.4649 17.546 16.6842 17.546 14.4901C17.546 12.296 15.7662 10.5153 13.5733 10.5153ZM13.5733 12.8964C14.4519 12.8964 15.1662 13.611 15.1662 14.4901C15.1662 15.3692 14.4519 16.0838 13.5733 16.0838C12.6953 16.0838 11.9821 15.3697 11.9821 14.4901C11.9821 13.6105 12.6953 12.8964 13.5733 12.8964Z" fill="#200E32"/>
</svg>
